<svg width="106" height="102" viewBox="0 0 106 102" fill="none" xmlns="http://www.w3.org/2000/svg">
<g filter="url(#filter0_d_1_320)">
<path d="M91.425 23.2695C91.425 42.4833 101.378 55.6778 101.378 64.9361C101.378 74.1945 96.0556 93.6389 53.4639 93.6389C10.8723 93.6389 4.61948 67.4806 4.61948 57.2972C4.61948 9.61113 91.425 -10.7583 91.425 23.2695Z" fill="#EFEFEF"/>
<path d="M12.7139 16.6667C11.7944 16.6667 10.9028 16.3639 10.1639 15.7889C9.2861 15.1055 8.72499 14.1194 8.58888 13.0167C8.44999 11.9139 8.74999 10.8222 9.43333 9.94165C10.1167 9.06387 11.1028 8.50276 12.2055 8.36665C13.3028 8.22221 14.4 8.52776 15.2805 9.2111C16.1611 9.89443 16.7194 10.8805 16.8555 11.9833C16.9944 13.0861 16.6917 14.1805 16.0111 15.0583C15.3278 15.9361 14.3417 16.4972 13.2389 16.6333C13.0639 16.6555 12.8889 16.6667 12.7139 16.6667ZM12.7222 11.1111C12.6639 11.1111 12.6083 11.1139 12.55 11.1222C11.7917 11.2167 11.25 11.9139 11.3444 12.6722C11.4389 13.4305 12.1305 13.9694 12.8944 13.8778C13.6528 13.7833 14.1944 13.0861 14.1 12.3278C14.0111 11.6278 13.4139 11.1111 12.7222 11.1111Z" fill="#A4AFC1"/>
<path d="M78.6944 75.6945H27.3056C24.2361 75.6945 21.75 73.2084 21.75 70.1389V28.4722H84.25V70.1389C84.25 73.2084 81.7639 75.6945 78.6944 75.6945Z" fill="#F3F3F1"/>
<path d="M84.25 28.4722H21.75V24.3056C21.75 21.2361 24.2361 18.75 27.3056 18.75H78.6944C81.7639 18.75 84.25 21.2361 84.25 24.3056V28.4722Z" fill="#EE4248"/>
<path d="M68.2778 81.25C77.099 81.25 84.25 74.099 84.25 65.2778C84.25 56.4566 77.099 49.3055 68.2778 49.3055C59.4566 49.3055 52.3055 56.4566 52.3055 65.2778C52.3055 74.099 59.4566 81.25 68.2778 81.25Z" fill="#EE4248"/>
<path d="M73.1389 38.1945H32.8611V50.6945H73.1667L73.1389 38.1945Z" fill="#EE4248"/>
<path d="M33.5556 18.75H27.3056C24.2361 18.75 21.75 21.2361 21.75 24.3056V28.4722H28V24.3056C28 21.2361 30.4861 18.75 33.5556 18.75Z" fill="#EE4248"/>
<path d="M58.5555 65.2778C58.5555 57.5278 64.0778 51.0694 71.4028 49.6167C70.3917 49.4167 69.3472 49.3055 68.2778 49.3055C59.4555 49.3055 52.3055 56.4555 52.3055 65.2778C52.3055 74.1 59.4555 81.25 68.2778 81.25C69.3472 81.25 70.3917 81.1417 71.4028 80.9389C64.0778 79.4861 58.5555 73.0278 58.5555 65.2778Z" fill="#EE4248"/>
<path d="M32.8611 38.1945H39.1111V50.6945H32.8611V38.1945Z" fill="#EE4248"/>
<path d="M28 70.1389V28.4722H21.75V70.1389C21.75 73.2084 24.2361 75.6945 27.3056 75.6945H33.5556C30.4861 75.6945 28 73.2084 28 70.1389Z" fill="#D5DBE1"/>
<path d="M68.2777 83.3333C58.3222 83.3333 50.2222 75.2333 50.2222 65.2778C50.2222 55.3222 58.3222 47.2222 68.2777 47.2222C78.2333 47.2222 86.3333 55.3222 86.3333 65.2778C86.3333 75.2333 78.2333 83.3333 68.2777 83.3333ZM68.2777 51.3889C60.6194 51.3889 54.3888 57.6194 54.3888 65.2778C54.3888 72.9361 60.6194 79.1667 68.2777 79.1667C75.9361 79.1667 82.1666 72.9361 82.1666 65.2778C82.1666 57.6194 75.9361 51.3889 68.2777 51.3889Z" fill="black"/>
<path d="M65.5 72.9167C64.9472 72.9167 64.4166 72.6972 64.0277 72.3056L58.4722 66.75L61.4194 63.8028L65.4 67.7833L73.6555 58.35L76.7916 61.0944L67.0694 72.2056C66.6888 72.6389 66.1472 72.8972 65.5694 72.9167C65.5472 72.9167 65.5222 72.9167 65.5 72.9167Z" fill="black"/>
<path d="M48.8612 52.7777H32.8612C31.7112 52.7777 30.7778 51.8444 30.7778 50.6944V38.1944C30.7778 37.0444 31.7112 36.1111 32.8612 36.1111H73.139C74.289 36.1111 75.2223 37.0444 75.2223 38.1944V41.4722H71.0556V40.2778H34.9445V48.6111H48.8612V52.7777Z" fill="black"/>
<path d="M30.9167 56.9167H46.8889V61.0833H30.9167V56.9167Z" fill="black"/>
<path d="M30.9167 65.25H46.1667V69.4167H30.9167V65.25Z" fill="black"/>
<path d="M46.3055 77.7778H27.3055C23.0916 77.7778 19.6666 74.3528 19.6666 70.1389V24.3056C19.6666 20.0917 23.0916 16.6667 27.3055 16.6667H78.6944C82.9083 16.6667 86.3333 20.0917 86.3333 24.3056V47H82.1666V24.3056C82.1666 22.3917 80.6083 20.8334 78.6944 20.8334H27.3055C25.3916 20.8334 23.8333 22.3917 23.8333 24.3056V70.1389C23.8333 72.0528 25.3916 73.6111 27.3055 73.6111H46.3055V77.7778Z" fill="black"/>
<path d="M21.75 26.3889H84.25V30.5556H21.75V26.3889Z" fill="black"/>
</g>
<defs>
<filter id="filter0_d_1_320" x="-1" y="0" width="108" height="108" filterUnits="userSpaceOnUse" color-interpolation-filters="sRGB">
<feFlood flood-opacity="0" result="BackgroundImageFix"/>
<feColorMatrix in="SourceAlpha" type="matrix" values="0 0 0 0 0 0 0 0 0 0 0 0 0 0 0 0 0 0 127 0" result="hardAlpha"/>
<feOffset dy="4"/>
<feGaussianBlur stdDeviation="2"/>
<feComposite in2="hardAlpha" operator="out"/>
<feColorMatrix type="matrix" values="0 0 0 0 0 0 0 0 0 0 0 0 0 0 0 0 0 0 0.25 0"/>
<feBlend mode="normal" in2="BackgroundImageFix" result="effect1_dropShadow_1_320"/>
<feBlend mode="normal" in="SourceGraphic" in2="effect1_dropShadow_1_320" result="shape"/>
</filter>
</defs>
</svg>
